<?xml version="1.0" encoding="UTF-8" standalone="no"?>
<!-- Created with Inkscape (http://www.inkscape.org/) -->

<svg
   width="105.87146mm"
   height="61.206944mm"
   viewBox="0 0 105.87146 61.206944"
   version="1.1"
   id="svg1"
   xmlns="http://www.w3.org/2000/svg"
   xmlns:svg="http://www.w3.org/2000/svg">
  <defs
     id="defs1" />
  <g
     id="g36"
     style="display:inline;fill:#000000"
     transform="matrix(1.04,0,0,1.0548246,-48.436194,-66.575968)">
    <ellipse
       style="fill:#000000;stroke-width:0.264583"
       id="ellipse30"
       cx="70.750641"
       cy="99.381744"
       rx="24.177378"
       ry="21.75964" />
    <ellipse
       style="fill:#000000;stroke-width:0.264583"
       id="ellipse31"
       cx="100.65424"
       cy="80.167091"
       rx="17.178663"
       ry="17.051414" />
    <ellipse
       style="fill:#000000;stroke-width:0.264583"
       id="ellipse32"
       cx="130.68509"
       cy="102.43573"
       rx="17.68766"
       ry="16.924164" />
    <path
       style="fill:#000000;stroke-width:0.264583"
       d="M 68.969151,120.37789 132.08483,119.3599 108.92545,92.89203 Z"
       id="path32" />
    <path
       style="fill:#000000;stroke-width:0.264583"
       d="M 98.745499,84.239072 73.550128,77.622108 125.21337,89.329047 74.059126,96.709509 96.964009,84.239072 Z"
       id="path33" />
    <path
       style="fill:#000000;stroke-width:0.264583"
       d="M 129.79434,105.61697 122.15938,88.311052 79.912595,86.020565 72.786631,106.88946 Z"
       id="path34" />
    <path
       style="fill:#000000;stroke-width:0.264583"
       d="M 131.57583,96.964009 131.06684,86.020565 69.732646,78.131105 Z"
       id="path35" />
    <ellipse
       style="fill:#000000;stroke-width:0.264583"
       id="ellipse35"
       cx="120.63239"
       cy="84.87532"
       rx="9.4164524"
       ry="7.7622108" />
    <path
       style="fill:#000000;stroke-width:0.264583"
       d="m 70.114395,121.01414 61.970435,-1.71787 -57.834831,-4.96272 z"
       id="path36" />
    <ellipse
       style="fill:#000000;stroke-width:0.264583"
       id="ellipse36"
       cx="81.566841"
       cy="77.87661"
       rx="9.2892027"
       ry="8.9074545" />
  </g>
  <g
     id="layer1"
     style="display:inline;fill:#ffffff"
     transform="translate(-46.446014,-61.843185)">
    <ellipse
       style="fill:#ffffff;stroke-width:0.264583"
       id="path5"
       cx="70.750641"
       cy="99.381744"
       rx="24.177378"
       ry="21.75964" />
    <ellipse
       style="fill:#ffffff;stroke-width:0.264583"
       id="path6"
       cx="100.65424"
       cy="80.167091"
       rx="17.178663"
       ry="17.051414" />
    <ellipse
       style="fill:#ffffff;stroke-width:0.264583"
       id="path7"
       cx="130.68509"
       cy="102.43573"
       rx="17.68766"
       ry="16.924164" />
    <path
       style="fill:#ffffff;stroke-width:0.264583"
       d="M 68.969151,120.37789 132.08483,119.3599 108.92545,92.89203 Z"
       id="path8" />
    <path
       style="fill:#ffffff;stroke-width:0.264583"
       d="M 98.745499,84.239072 73.550128,77.622108 125.21337,89.329047 74.059126,96.709509 96.964009,84.239072 Z"
       id="path9" />
    <path
       style="fill:#ffffff;stroke-width:0.264583"
       d="M 129.79434,105.61697 122.15938,88.311052 79.912595,86.020565 72.786631,106.88946 Z"
       id="path10" />
    <path
       style="fill:#ffffff;stroke-width:0.264583"
       d="M 131.57583,96.964009 131.06684,86.020565 69.732646,78.131105 Z"
       id="path11" />
    <ellipse
       style="fill:#ffffff;stroke-width:0.264583"
       id="path13"
       cx="120.63239"
       cy="84.87532"
       rx="9.4164524"
       ry="7.7622108" />
    <path
       style="fill:#ffffff;stroke-width:0.264583"
       d="m 70.114395,121.01414 61.970435,-1.71787 -57.834831,-4.96272 z"
       id="path15" />
    <ellipse
       style="fill:#ffffff;stroke-width:0.264583"
       id="path12"
       cx="81.566841"
       cy="77.87661"
       rx="9.2892027"
       ry="8.9074545" />
  </g>
  <g
     id="g22"
     style="display:inline;fill:#87deaa"
     transform="matrix(0.94875,0,0,0.91885965,-59.261138,-62.671143)">
    <ellipse
       style="fill:#87deaa;stroke-width:0.264583"
       id="ellipse16"
       cx="89.456299"
       cy="109.17995"
       rx="24.177378"
       ry="21.75964" />
    <ellipse
       style="fill:#87deaa;stroke-width:0.264583"
       id="ellipse17"
       cx="119.3599"
       cy="89.965294"
       rx="17.178663"
       ry="17.051414" />
    <ellipse
       style="fill:#87deaa;stroke-width:0.264583"
       id="ellipse18"
       cx="149.39075"
       cy="112.23393"
       rx="17.68766"
       ry="16.924164" />
    <path
       style="fill:#87deaa;stroke-width:0.264583"
       d="M 87.674807,130.17609 150.79049,129.1581 127.63111,102.69023 Z"
       id="path18" />
    <path
       style="fill:#87deaa;stroke-width:0.264583"
       d="M 117.45115,94.037273 92.255784,87.420309 143.91903,99.127248 92.764782,106.50771 115.66966,94.037273 Z"
       id="path19" />
    <path
       style="fill:#87deaa;stroke-width:0.264583"
       d="M 148.5,115.41517 140.86504,98.109253 98.618251,95.818766 91.492287,116.68766 Z"
       id="path20" />
    <path
       style="fill:#87deaa;stroke-width:0.264583"
       d="M 150.28149,106.76221 149.7725,95.818766 88.438302,87.929306 Z"
       id="path21" />
    <ellipse
       style="fill:#87deaa;stroke-width:0.264583"
       id="ellipse21"
       cx="139.33804"
       cy="94.673523"
       rx="9.4164524"
       ry="7.7622108" />
    <path
       style="fill:#87deaa;stroke-width:0.264583"
       d="m 88.820051,130.81234 61.970439,-1.71787 -57.834835,-4.96272 z"
       id="path22" />
    <ellipse
       style="fill:#87deaa;stroke-width:0.264583"
       id="ellipse22"
       cx="100.2725"
       cy="87.674812"
       rx="9.2892027"
       ry="8.9074545" />
  </g>
  <g
     id="g29"
     style="display:inline;fill:#aaffee"
     transform="matrix(0.85,0,0,0.77631579,-47.979369,-47.69674)">
    <ellipse
       style="fill:#aaffee;stroke-width:0.264583"
       id="ellipse23"
       cx="89.456299"
       cy="109.17995"
       rx="24.177378"
       ry="21.75964" />
    <ellipse
       style="fill:#aaffee;stroke-width:0.264583"
       id="ellipse24"
       cx="119.3599"
       cy="89.965294"
       rx="17.178663"
       ry="17.051414" />
    <ellipse
       style="fill:#aaffee;stroke-width:0.264583"
       id="ellipse25"
       cx="149.39075"
       cy="112.23393"
       rx="17.68766"
       ry="16.924164" />
    <path
       style="fill:#aaffee;stroke-width:0.264583"
       d="M 87.674807,130.17609 150.79049,129.1581 127.63111,102.69023 Z"
       id="path25" />
    <path
       style="fill:#aaffee;stroke-width:0.264583"
       d="M 117.45115,94.037273 92.255784,87.420309 143.91903,99.127248 92.764782,106.50771 115.66966,94.037273 Z"
       id="path26" />
    <path
       style="fill:#aaffee;stroke-width:0.264583"
       d="M 148.5,115.41517 140.86504,98.109253 98.618251,95.818766 91.492287,116.68766 Z"
       id="path27" />
    <path
       style="fill:#aaffee;stroke-width:0.264583"
       d="M 150.28149,106.76221 149.7725,95.818766 88.438302,87.929306 Z"
       id="path28" />
    <ellipse
       style="fill:#aaffee;stroke-width:0.264583"
       id="ellipse28"
       cx="139.33804"
       cy="94.673523"
       rx="9.4164524"
       ry="7.7622108" />
    <path
       style="fill:#aaffee;stroke-width:0.264583"
       d="m 88.820051,130.81234 61.970439,-1.71787 -57.834835,-4.96272 z"
       id="path29" />
    <ellipse
       style="fill:#aaffee;stroke-width:0.264583"
       id="ellipse29"
       cx="100.2725"
       cy="87.674812"
       rx="9.2892027"
       ry="8.9074545" />
  </g>
  <g
     id="layer2"
     style="display:inline"
     transform="translate(-46.446014,-61.843185)">
    <text
       xml:space="preserve"
       style="font-style:normal;font-variant:normal;font-weight:bold;font-stretch:normal;font-size:31.75px;font-family:'DejaVu Sans';-inkscape-font-specification:'DejaVu Sans, Bold';font-variant-ligatures:normal;font-variant-caps:normal;font-variant-numeric:normal;font-variant-east-asian:normal;text-align:start;letter-spacing:0px;writing-mode:lr-tb;direction:ltr;text-anchor:start;fill:#000000;fill-opacity:0.685315;stroke-width:0.264583"
       x="84.366325"
       y="108.92545"
       id="text16"><tspan
         id="tspan15"
         style="font-style:normal;font-variant:normal;font-weight:bold;font-stretch:normal;font-size:31.75px;font-family:'DejaVu Sans';-inkscape-font-specification:'DejaVu Sans, Bold';font-variant-ligatures:normal;font-variant-caps:normal;font-variant-numeric:normal;font-variant-east-asian:normal;fill:#000000;fill-opacity:0.685315;stroke-width:0.264583"
         x="84.366325"
         y="108.92545">R</tspan></text>
  </g>
</svg>
